<?xml version="1.0" encoding="UTF-8"?>
<svg xmlns="http://www.w3.org/2000/svg" xmlns:xlink="http://www.w3.org/1999/xlink" width="32px" height="32px"
    viewBox="0 0 32 31" version="1.1">
    <defs>
        <clipPath id="clip1">
            <path d="M 0 0 L 31.96875 0 L 31.96875 31 L 0 31 Z M 0 0 " />
        </clipPath>
        <clipPath id="clip2">
            <path d="M 0 0 L 31.96875 0 L 31.96875 31 L 0 31 Z M 0 0 " />
        </clipPath>
    </defs>
    <g id="surface1">
        <g clip-path="url(#clip1)" clip-rule="nonzero">
            <path style=" stroke:none;fill-rule:nonzero;fill:rgb(98.823529%,82.352941%,1.960784%);fill-opacity:1;"
                d="M 31.328125 2.464844 L 31.328125 28.101562 L 31.0625 29.753906 L 29.519531 30.273438 L 2.328125 30.273438 L 1.210938 29.753906 L 0.730469 28.773438 L 0.730469 2.773438 L 1.105469 1.429688 L 2.117188 0.550781 L 29.679688 0.550781 L 30.902344 1.171875 Z M 31.328125 2.464844 " />
        </g>
        <path style=" stroke:none;fill-rule:nonzero;fill:rgb(68.627451%,53.333333%,3.529412%);fill-opacity:1;"
            d="M 3.863281 4.515625 L 2.707031 4.183594 L 2.429688 3.027344 L 3.308594 2.199219 L 4.464844 2.527344 L 4.742188 3.6875 Z M 3.863281 4.515625 " />
        <path style=" stroke:none;fill-rule:nonzero;fill:rgb(68.627451%,53.333333%,3.529412%);fill-opacity:1;"
            d="M 28.765625 4.550781 L 27.609375 4.21875 L 27.332031 3.058594 L 28.214844 2.230469 L 29.371094 2.5625 L 29.644531 3.722656 Z M 28.765625 4.550781 " />
        <path style=" stroke:none;fill-rule:nonzero;fill:rgb(68.627451%,53.333333%,3.529412%);fill-opacity:1;"
            d="M 28.785156 28.859375 L 27.628906 28.53125 L 27.351562 27.371094 L 28.230469 26.542969 L 29.386719 26.875 L 29.664062 28.03125 Z M 28.785156 28.859375 " />
        <path style=" stroke:none;fill-rule:nonzero;fill:rgb(68.627451%,53.333333%,3.529412%);fill-opacity:1;"
            d="M 3.828125 28.859375 L 2.671875 28.53125 L 2.394531 27.371094 L 3.273438 26.542969 L 4.429688 26.875 L 4.707031 28.03125 Z M 3.828125 28.859375 " />
        <path style=" stroke:none;fill-rule:nonzero;fill:rgb(100%,100%,100%);fill-opacity:1;"
            d="M 13.554688 23.070312 L 12.972656 23.570312 L 13.007812 26.617188 L 13.46875 26.980469 L 18.59375 27 L 18.984375 26.378906 L 18.914062 23.757812 L 18.46875 23.105469 Z M 13.554688 23.070312 " />
        <path style=" stroke:none;fill-rule:nonzero;fill:rgb(100%,100%,100%);fill-opacity:1;"
            d="M 5.9375 7.582031 L 5.886719 12.542969 L 6.308594 13.113281 L 11.3125 13.136719 L 11.792969 12.644531 L 11.765625 9.492188 L 12.457031 8.5625 L 19.535156 8.640625 L 20.226562 9.285156 L 20.304688 12.878906 L 19.5625 13.679688 L 16.183594 13.628906 L 15.542969 13.859375 L 13.496094 15.953125 L 13.042969 16.601562 L 13.09375 20.710938 L 13.386719 21.125 L 18.417969 21.097656 L 19.027344 20.582031 L 18.894531 17.996094 L 19.613281 17.273438 L 23.019531 17.375 L 23.84375 17.144531 L 25.761719 14.972656 L 26.132812 14.066406 L 26.050781 7.941406 L 25.839844 7.347656 L 23.578125 5.175781 L 23.074219 4.972656 L 9.238281 4.867188 L 8.4375 5.125 Z M 5.9375 7.582031 " />
        <g clip-path="url(#clip2)" clip-rule="nonzero">
            <path style=" stroke:none;fill-rule:nonzero;fill:rgb(9.411765%,7.058824%,6.27451%);fill-opacity:1;"
                d="M 25.621094 14.546875 C 25.410156 14.753906 23.503906 16.636719 23.285156 16.851562 L 19.386719 16.851562 L 19.265625 16.96875 L 18.597656 17.617188 C 18.558594 17.652344 18.472656 17.742188 18.472656 17.742188 C 18.472656 17.742188 18.472656 17.851562 18.472656 17.910156 L 18.472656 20.746094 L 13.570312 20.746094 L 13.570312 16.367188 C 13.78125 16.160156 15.683594 14.28125 15.898438 14.066406 L 19.621094 14.066406 C 19.683594 14.066406 19.792969 14.066406 19.792969 14.066406 C 19.792969 14.066406 19.886719 13.980469 19.921875 13.949219 L 20.59375 13.296875 C 20.632812 13.257812 20.714844 13.164062 20.714844 13.164062 C 20.714844 13.164062 20.71875 13.058594 20.71875 13.003906 L 20.71875 9.242188 C 20.71875 9.1875 20.714844 9.078125 20.714844 9.078125 C 20.714844 9.078125 20.632812 8.988281 20.59375 8.949219 L 19.921875 8.304688 C 19.886719 8.269531 19.792969 8.183594 19.792969 8.183594 C 19.792969 8.183594 19.683594 8.183594 19.621094 8.183594 L 12.414062 8.183594 C 12.25 8.183594 12.273438 8.183594 12.246094 8.183594 C 12.246094 8.183594 12.152344 8.265625 12.117188 8.304688 L 11.449219 8.949219 C 11.410156 8.984375 11.324219 9.074219 11.324219 9.074219 C 11.324219 9.074219 11.324219 9.183594 11.324219 9.242188 L 11.324219 12.632812 L 6.421875 12.632812 L 6.421875 7.808594 C 6.628906 7.597656 8.605469 5.621094 8.820312 5.402344 L 23.222656 5.402344 C 23.441406 5.621094 25.410156 7.597656 25.621094 7.808594 Z M 23.710938 4.703125 C 23.628906 4.621094 23.519531 4.574219 23.40625 4.574219 L 8.640625 4.574219 C 8.527344 4.574219 8.414062 4.621094 8.335938 4.699219 L 5.691406 7.351562 C 5.613281 7.429688 5.570312 7.53125 5.570312 7.640625 L 5.570312 13.046875 C 5.570312 13.273438 5.761719 13.460938 5.996094 13.460938 L 11.75 13.460938 C 11.984375 13.460938 12.175781 13.273438 12.175781 13.046875 L 12.175781 9.414062 C 12.300781 9.289062 12.464844 9.132812 12.589844 9.011719 L 19.445312 9.011719 C 19.574219 9.132812 19.738281 9.289062 19.867188 9.414062 L 19.867188 12.832031 C 19.738281 12.957031 19.574219 13.117188 19.445312 13.242188 L 15.71875 13.242188 C 15.605469 13.242188 15.496094 13.285156 15.414062 13.363281 L 12.839844 15.910156 C 12.761719 15.988281 12.71875 16.089844 12.71875 16.199219 L 12.71875 21.160156 C 12.71875 21.390625 12.910156 21.574219 13.144531 21.574219 L 18.898438 21.574219 C 19.132812 21.574219 19.324219 21.390625 19.324219 21.160156 L 19.324219 18.082031 C 19.449219 17.957031 19.613281 17.800781 19.742188 17.675781 L 23.464844 17.675781 C 23.578125 17.675781 23.6875 17.632812 23.769531 17.554688 L 26.347656 15.007812 C 26.425781 14.929688 26.472656 14.824219 26.472656 14.714844 L 26.472656 7.640625 C 26.472656 7.535156 26.429688 7.429688 26.351562 7.351562 Z M 18.472656 26.398438 L 13.570312 26.398438 L 13.570312 23.617188 L 18.472656 23.617188 Z M 18.898438 22.792969 L 13.144531 22.792969 C 12.910156 22.792969 12.71875 22.976562 12.71875 23.203125 L 12.71875 26.8125 C 12.71875 27.042969 12.910156 27.226562 13.144531 27.226562 L 18.898438 27.226562 C 19.132812 27.226562 19.324219 27.042969 19.324219 26.8125 L 19.324219 23.203125 C 19.324219 22.976562 19.132812 22.792969 18.898438 22.792969 M 28.488281 28.484375 C 28.042969 28.484375 27.679688 28.132812 27.679688 27.699219 C 27.679688 27.265625 28.042969 26.914062 28.488281 26.914062 C 28.933594 26.914062 29.300781 27.265625 29.300781 27.699219 C 29.300781 28.132812 28.933594 28.484375 28.488281 28.484375 M 28.488281 26.292969 C 27.691406 26.292969 27.039062 26.921875 27.039062 27.699219 C 27.039062 28.472656 27.691406 29.105469 28.488281 29.105469 C 29.289062 29.105469 29.9375 28.472656 29.9375 27.699219 C 29.9375 26.921875 29.289062 26.292969 28.488281 26.292969 M 28.488281 4.164062 C 28.042969 4.164062 27.679688 3.8125 27.679688 3.375 C 27.679688 2.941406 28.042969 2.589844 28.488281 2.589844 C 28.933594 2.589844 29.300781 2.941406 29.300781 3.375 C 29.300781 3.8125 28.933594 4.164062 28.488281 4.164062 M 28.488281 1.96875 C 27.691406 1.96875 27.039062 2.601562 27.039062 3.375 C 27.039062 4.152344 27.691406 4.785156 28.488281 4.785156 C 29.289062 4.785156 29.9375 4.152344 29.9375 3.375 C 29.9375 2.601562 29.289062 1.96875 28.488281 1.96875 M 30.703125 28.429688 C 30.703125 29.355469 30.242188 29.800781 29.292969 29.800781 L 2.753906 29.800781 C 1.804688 29.800781 1.339844 29.355469 1.339844 28.429688 L 1.339844 2.652344 C 1.339844 1.730469 1.804688 1.28125 2.753906 1.28125 L 29.292969 1.28125 C 30.242188 1.28125 30.703125 1.730469 30.703125 2.652344 Z M 29.292969 0.144531 L 2.753906 0.144531 C 1.160156 0.144531 0.171875 1.105469 0.171875 2.652344 L 0.171875 28.429688 C 0.171875 29.976562 1.160156 30.9375 2.753906 30.9375 L 29.292969 30.9375 C 30.882812 30.9375 31.875 29.976562 31.875 28.429688 L 31.875 2.652344 C 31.875 1.105469 30.882812 0.144531 29.292969 0.144531 M 3.554688 4.164062 C 3.109375 4.164062 2.746094 3.8125 2.746094 3.375 C 2.746094 2.941406 3.109375 2.589844 3.554688 2.589844 C 4 2.589844 4.363281 2.941406 4.363281 3.375 C 4.363281 3.8125 4 4.164062 3.554688 4.164062 M 3.554688 1.96875 C 2.757812 1.96875 2.105469 2.601562 2.105469 3.375 C 2.105469 4.152344 2.757812 4.785156 3.554688 4.785156 C 4.351562 4.785156 5.003906 4.152344 5.003906 3.375 C 5.003906 2.601562 4.351562 1.96875 3.554688 1.96875 M 3.554688 28.484375 C 3.109375 28.484375 2.746094 28.132812 2.746094 27.699219 C 2.746094 27.265625 3.109375 26.914062 3.554688 26.914062 C 4 26.914062 4.363281 27.265625 4.363281 27.699219 C 4.363281 28.132812 4 28.484375 3.554688 28.484375 M 3.554688 26.292969 C 2.757812 26.292969 2.105469 26.921875 2.105469 27.699219 C 2.105469 28.472656 2.757812 29.105469 3.554688 29.105469 C 4.351562 29.105469 5.003906 28.472656 5.003906 27.699219 C 5.003906 26.921875 4.351562 26.292969 3.554688 26.292969 " />
        </g>
    </g>
</svg>
